<svg xmlns="http://www.w3.org/2000/svg" viewBox="0 0 900 520" fill="none">
  <defs>
    <linearGradient id="bgGrad" x1="0" y1="0" x2="900" y2="520" gradientUnits="userSpaceOnUse">
      <stop offset="0%" stop-color="#eef2ff"/>
      <stop offset="50%" stop-color="#f5f3ff"/>
      <stop offset="100%" stop-color="#fdf4ff"/>
    </linearGradient>
    <linearGradient id="cardGrad" x1="0" y1="0" x2="1" y2="1">
      <stop offset="0%" stop-color="#6366f1"/>
      <stop offset="100%" stop-color="#7c3aed"/>
    </linearGradient>
    <linearGradient id="eventsGrad" x1="0" y1="0" x2="1" y2="1">
      <stop offset="0%" stop-color="#2563eb"/>
      <stop offset="50%" stop-color="#7c3aed"/>
      <stop offset="100%" stop-color="#ec4899"/>
    </linearGradient>
    <linearGradient id="avatarGrad" x1="0" y1="0" x2="1" y2="1">
      <stop offset="0%" stop-color="#818cf8"/>
      <stop offset="100%" stop-color="#6366f1"/>
    </linearGradient>
    <filter id="shadow" x="-10%" y="-10%" width="120%" height="120%">
      <feDropShadow dx="0" dy="8" stdDeviation="16" flood-color="#6366f1" flood-opacity="0.15"/>
    </filter>
    <filter id="shadowEvents" x="-10%" y="-10%" width="120%" height="120%">
      <feDropShadow dx="0" dy="8" stdDeviation="16" flood-color="#7c3aed" flood-opacity="0.15"/>
    </filter>
    <clipPath id="cardClip">
      <rect x="60" y="60" width="340" height="400" rx="24"/>
    </clipPath>
    <clipPath id="eventsClip">
      <rect x="500" y="60" width="340" height="400" rx="24"/>
    </clipPath>
  </defs>

  <!-- Background -->
  <rect width="900" height="520" fill="url(#bgGrad)" rx="16"/>

  <!-- Subtle grid dots -->
  <pattern id="dots" x="0" y="0" width="30" height="30" patternUnits="userSpaceOnUse">
    <circle cx="15" cy="15" r="1" fill="#6366f1" opacity="0.12"/>
  </pattern>
  <rect width="900" height="520" fill="url(#dots)"/>

  <!-- Connecting line between the two cards -->
  <line x1="400" y1="260" x2="500" y2="260" stroke="#6366f1" stroke-width="2" stroke-dasharray="6 4" opacity="0.4"/>
  <circle cx="450" cy="260" r="18" fill="white" stroke="#e0e7ff" stroke-width="2"/>
  <text x="450" y="265" text-anchor="middle" font-family="Inter,sans-serif" font-size="10" font-weight="700" fill="#6366f1">+</text>

  <!-- ── LEFT CARD: Digital Business Card ─────────────────── -->
  <g filter="url(#shadow)">
    <rect x="60" y="60" width="340" height="400" rx="24" fill="white"/>
  </g>

  <!-- Card header bar -->
  <rect x="60" y="60" width="340" height="6" rx="3" fill="url(#cardGrad)"/>

  <!-- Avatar circle -->
  <circle cx="160" cy="145" r="38" fill="url(#avatarGrad)"/>
  <!-- Person silhouette -->
  <circle cx="160" cy="132" r="14" fill="white" opacity="0.9"/>
  <ellipse cx="160" cy="162" rx="20" ry="12" fill="white" opacity="0.7"/>

  <!-- Name + role -->
  <rect x="210" y="125" width="120" height="12" rx="6" fill="#e0e7ff"/>
  <rect x="210" y="145" width="90" height="9" rx="4" fill="#ede9fe" opacity="0.8"/>
  <rect x="210" y="161" width="100" height="9" rx="4" fill="#f1f5f9" opacity="0.6"/>

  <!-- QR Code block -->
  <rect x="230" y="100" width="52" height="52" rx="8" fill="#f8fafc" stroke="#e0e7ff" stroke-width="1.5"/>
  <rect x="237" y="107" width="38" height="38" rx="4" fill="white"/>
  <!-- QR pattern -->
  <rect x="239" y="109" width="7" height="7" rx="1" fill="#6366f1"/>
  <rect x="248" y="109" width="4" height="4" rx="1" fill="#6366f1"/>
  <rect x="248" y="115" width="4" height="4" rx="1" fill="#6366f1"/>
  <rect x="261" y="109" width="7" height="7" rx="1" fill="#6366f1"/>
  <rect x="239" y="122" width="4" height="7" rx="1" fill="#6366f1"/>
  <rect x="244" y="127" width="4" height="4" rx="1" fill="#6366f1"/>
  <rect x="250" y="122" width="7" height="4" rx="1" fill="#6366f1"/>
  <rect x="261" y="122" width="7" height="7" rx="1" fill="#6366f1"/>
  <rect x="239" y="136" width="7" height="7" rx="1" fill="#6366f1"/>
  <rect x="253" y="133" width="4" height="4" rx="1" fill="#6366f1"/>
  <rect x="260" y="136" width="8" height="7" rx="1" fill="#6366f1"/>

  <!-- Divider -->
  <line x1="90" y1="200" x2="370" y2="200" stroke="#f1f5f9" stroke-width="1.5"/>

  <!-- Social icons row label -->
  <text x="90" y="223" font-family="Inter,sans-serif" font-size="10" fill="#94a3b8" font-weight="500">SOCIAL LINKS</text>
  <!-- Social pill badges -->
  <rect x="90" y="230" width="58" height="22" rx="11" fill="#eef2ff"/>
  <text x="119" y="245" text-anchor="middle" font-family="Inter,sans-serif" font-size="10" font-weight="600" fill="#6366f1">LinkedIn</text>
  <rect x="155" y="230" width="62" height="22" rx="11" fill="#f0fdf4"/>
  <text x="186" y="245" text-anchor="middle" font-family="Inter,sans-serif" font-size="10" font-weight="600" fill="#16a34a">WhatsApp</text>
  <rect x="224" y="230" width="48" height="22" rx="11" fill="#fdf4ff"/>
  <text x="248" y="245" text-anchor="middle" font-family="Inter,sans-serif" font-size="10" font-weight="600" fill="#9333ea">Instagram</text>
  <rect x="279" y="230" width="60" height="22" rx="11" fill="#fff7ed"/>
  <text x="309" y="245" text-anchor="middle" font-family="Inter,sans-serif" font-size="10" font-weight="600" fill="#ea580c">TikTok</text>

  <!-- Divider -->
  <line x1="90" y1="264" x2="370" y2="264" stroke="#f1f5f9" stroke-width="1.5"/>

  <!-- CTA Buttons -->
  <rect x="90" y="272" width="126" height="34" rx="10" fill="url(#cardGrad)"/>
  <text x="153" y="293" text-anchor="middle" font-family="Inter,sans-serif" font-size="12" font-weight="700" fill="white">Book a Meeting</text>
  <rect x="224" y="272" width="146" height="34" rx="10" fill="#f8fafc" stroke="#e0e7ff" stroke-width="1.5"/>
  <text x="297" y="293" text-anchor="middle" font-family="Inter,sans-serif" font-size="12" font-weight="600" fill="#475569">Enquire Now</text>

  <!-- Analytics mini section -->
  <text x="90" y="333" font-family="Inter,sans-serif" font-size="10" fill="#94a3b8" font-weight="500">ANALYTICS</text>
  <!-- Stat boxes -->
  <rect x="90" y="340" width="80" height="52" rx="10" fill="#f8fafc" stroke="#e0e7ff" stroke-width="1"/>
  <text x="130" y="362" text-anchor="middle" font-family="Inter,sans-serif" font-size="18" font-weight="900" fill="#6366f1">847</text>
  <text x="130" y="379" text-anchor="middle" font-family="Inter,sans-serif" font-size="9" fill="#94a3b8">Views</text>

  <rect x="178" y="340" width="80" height="52" rx="10" fill="#f8fafc" stroke="#e0e7ff" stroke-width="1"/>
  <text x="218" y="362" text-anchor="middle" font-family="Inter,sans-serif" font-size="18" font-weight="900" fill="#7c3aed">124</text>
  <text x="218" y="379" text-anchor="middle" font-family="Inter,sans-serif" font-size="9" fill="#94a3b8">Clicks</text>

  <rect x="266" y="340" width="104" height="52" rx="10" fill="#f8fafc" stroke="#e0e7ff" stroke-width="1"/>
  <text x="318" y="362" text-anchor="middle" font-family="Inter,sans-serif" font-size="18" font-weight="900" fill="#0891b2">32</text>
  <text x="318" y="379" text-anchor="middle" font-family="Inter,sans-serif" font-size="9" fill="#94a3b8">Leads</text>

  <!-- Card label -->
  <rect x="90" y="420" width="170" height="26" rx="13" fill="#eef2ff"/>
  <circle cx="108" cy="433" r="8" fill="url(#cardGrad)"/>
  <text x="168" y="437" text-anchor="middle" font-family="Inter,sans-serif" font-size="11" font-weight="700" fill="#6366f1">Digital Business Card</text>

  <!-- ── RIGHT CARD: CardGit Events ──────────────────────── -->
  <g filter="url(#shadowEvents)">
    <rect x="500" y="60" width="340" height="400" rx="24" fill="white"/>
  </g>

  <!-- Events header bar -->
  <rect x="500" y="60" width="340" height="6" rx="3" fill="url(#eventsGrad)"/>

  <!-- Event live badge -->
  <rect x="520" y="82" width="80" height="22" rx="11" fill="#dcfce7"/>
  <circle cx="534" cy="93" r="4" fill="#16a34a"/>
  <text x="558" y="97" text-anchor="middle" font-family="Inter,sans-serif" font-size="10" font-weight="700" fill="#16a34a">● LIVE</text>
  <text x="630" y="97" font-family="Inter,sans-serif" font-size="11" font-weight="700" fill="#0f172a">UK Tech Summit 2026</text>

  <!-- Attendee avatars row -->
  <text x="520" y="126" font-family="Inter,sans-serif" font-size="10" fill="#94a3b8" font-weight="500">247 ATTENDEES</text>
  <circle cx="530" cy="148" r="14" fill="#818cf8"/>
  <circle cx="548" cy="148" r="14" fill="#34d399"/>
  <circle cx="566" cy="148" r="14" fill="#fb923c"/>
  <circle cx="584" cy="148" r="14" fill="#60a5fa"/>
  <circle cx="602" cy="148" r="14" fill="#f472b6"/>
  <rect x="616" y="134" width="34" height="28" rx="14" fill="#f1f5f9"/>
  <text x="633" y="152" text-anchor="middle" font-family="Inter,sans-serif" font-size="10" font-weight="700" fill="#475569">+242</text>

  <!-- Divider -->
  <line x1="520" y1="174" x2="820" y2="174" stroke="#f1f5f9" stroke-width="1.5"/>

  <!-- Smart matchmaking section -->
  <text x="520" y="194" font-family="Inter,sans-serif" font-size="10" fill="#94a3b8" font-weight="500">SMART MATCHMAKING</text>

  <!-- Match cards -->
  <rect x="520" y="202" width="280" height="56" rx="12" fill="#faf5ff" stroke="#e9d5ff" stroke-width="1"/>
  <circle cx="546" cy="230" r="16" fill="#7c3aed"/>
  <text x="546" y="235" text-anchor="middle" font-family="Inter,sans-serif" font-size="10" font-weight="700" fill="white">JD</text>
  <text x="572" y="225" font-family="Inter,sans-serif" font-size="11" font-weight="700" fill="#0f172a">James D.</text>
  <text x="572" y="239" font-family="Inter,sans-serif" font-size="10" fill="#6b7280">Senior Engineer · FinTech</text>
  <rect x="720" y="218" width="68" height="22" rx="11" fill="#7c3aed"/>
  <text x="754" y="233" text-anchor="middle" font-family="Inter,sans-serif" font-size="10" font-weight="700" fill="white">98% match</text>

  <rect x="520" y="264" width="280" height="56" rx="12" fill="#eff6ff" stroke="#bfdbfe" stroke-width="1"/>
  <circle cx="546" cy="292" r="16" fill="#2563eb"/>
  <text x="546" y="297" text-anchor="middle" font-family="Inter,sans-serif" font-size="10" font-weight="700" fill="white">SR</text>
  <text x="572" y="287" font-family="Inter,sans-serif" font-size="11" font-weight="700" fill="#0f172a">Sarah R.</text>
  <text x="572" y="301" font-family="Inter,sans-serif" font-size="10" fill="#6b7280">Product Lead · SaaS</text>
  <rect x="720" y="280" width="68" height="22" rx="11" fill="#2563eb"/>
  <text x="754" y="295" text-anchor="middle" font-family="Inter,sans-serif" font-size="10" font-weight="700" fill="white">94% match</text>

  <!-- Divider -->
  <line x1="520" y1="332" x2="820" y2="332" stroke="#f1f5f9" stroke-width="1.5"/>

  <!-- Live stats row -->
  <text x="520" y="352" font-family="Inter,sans-serif" font-size="10" fill="#94a3b8" font-weight="500">LIVE ENGAGEMENT</text>

  <rect x="520" y="360" width="82" height="46" rx="10" fill="#f0fdf4" stroke="#bbf7d0" stroke-width="1"/>
  <text x="561" y="382" text-anchor="middle" font-family="Inter,sans-serif" font-size="16" font-weight="900" fill="#16a34a">142</text>
  <text x="561" y="396" text-anchor="middle" font-family="Inter,sans-serif" font-size="9" fill="#94a3b8">Q&amp;A votes</text>

  <rect x="610" y="360" width="82" height="46" rx="10" fill="#fdf4ff" stroke="#e9d5ff" stroke-width="1"/>
  <text x="651" y="382" text-anchor="middle" font-family="Inter,sans-serif" font-size="16" font-weight="900" fill="#9333ea">89%</text>
  <text x="651" y="396" text-anchor="middle" font-family="Inter,sans-serif" font-size="9" fill="#94a3b8">Engaged</text>

  <rect x="700" y="360" width="100" height="46" rx="10" fill="#fff7ed" stroke="#fed7aa" stroke-width="1"/>
  <text x="750" y="382" text-anchor="middle" font-family="Inter,sans-serif" font-size="16" font-weight="900" fill="#ea580c">🏆 32</text>
  <text x="750" y="396" text-anchor="middle" font-family="Inter,sans-serif" font-size="9" fill="#94a3b8">Leaderboard</text>

  <!-- Events label -->
  <rect x="520" y="420" width="150" height="26" rx="13" fill="#f5f3ff"/>
  <circle cx="538" cy="433" r="8" fill="url(#eventsGrad)"/>
  <text x="610" y="437" text-anchor="middle" font-family="Inter,sans-serif" font-size="11" font-weight="700" fill="#7c3aed">CardGit Events</text>
</svg>
